<?xml version="1.0" encoding="UTF-8"?>
<svg width="66px" height="66px" viewBox="0 0 66 66" version="1.1" xmlns="http://www.w3.org/2000/svg" xmlns:xlink="http://www.w3.org/1999/xlink">
    <!-- Generator: sketchtool 52.3 (67297) - http://www.bohemiancoding.com/sketch -->
    <title>1F790483-7D2D-409F-9098-460EFDA6BFA1</title>
    <desc>Created with sketchtool.</desc>
    <g id="Page-1" stroke="none" stroke-width="1" fill="none" fill-rule="evenodd">
        <g id="训练营列表页" transform="translate(-307.000000, -210.000000)" fill="#00B4C5">
            <g id="添加-(2)" transform="translate(307.000000, 210.000000)">
                <path d="M62.5953504,33.0300486 C62.4758493,48.8801274 49.7964807,62.0459049 33.9328003,62.6411299 C18.1208698,63.2346523 4.47051249,50.628686 3.40998315,34.9379695 C2.34434694,19.1737011 14.449021,5.06060327 30.1220444,3.52793297 C45.8185594,1.99321956 60.3660258,13.5987448 62.3682643,29.2404268 C62.5289609,30.4962562 62.5851366,31.7629821 62.5953504,33.0300486 C62.6113519,35.2246854 66.0166214,35.2260475 65.9999389,33.0300486 C65.8828211,17.4564702 54.8141633,3.7782135 39.5132614,0.64681245 C24.2276803,-2.48118342 8.42800621,6.00009169 2.47065718,20.3794744 C-3.56669968,34.9529522 1.81050746,51.8341187 14.7867562,60.6024503 C27.8055623,69.3993853 45.7344661,67.1315373 56.6397036,56.0691377 C62.6600375,49.9612712 65.9355922,41.5651255 65.9995984,33.0300486 C66.0156,30.8309851 62.6110115,30.8323472 62.5953504,33.0300486 Z" id="Path"></path>
                <path d="M14.8552931,34.5230769 L52.1603482,34.5230769 C54.3670634,34.5230769 54.3670634,31.4769231 52.1603482,31.4769231 L14.8552931,31.4769231 C12.6482356,31.4769231 12.6482356,34.5230769 14.8552931,34.5230769 Z" id="Path"></path>
                <path d="M34.5230769,52.1603621 L34.5230769,14.8552792 C34.5230769,12.6482403 31.4769231,12.6482403 31.4769231,14.8552792 L31.4769231,52.1603621 C31.4766186,54.3670588 34.5230769,54.3670588 34.5230769,52.1603621 Z" id="Path"></path>
            </g>
        </g>
    </g>
</svg>